<svg xmlns="http://www.w3.org/2000/svg" width="240" height="200" viewBox="0 0 240 200">
    <defs>
        <linearGradient id="linear-gradient" x1=".5" x2=".5" y1=".416" y2="1" gradientUnits="objectBoundingBox">
            <stop offset="0" stop-color="#697adb"/>
            <stop offset="1" stop-color="#4f62cb"/>
        </linearGradient>
        <clipPath id="clip-path">
            <path id="_466048184" fill="#ff5722" d="M1.279 19.036c.126-4.865 6.5-9.08 16.737-11.973 9.812-2.771 23.344-4.486 38.268-4.486S84.74 4.292 94.552 7.063c10.24 2.892 16.611 7.108 16.737 11.973A44.38 44.38 0 0 1 99.6 24.712a106.715 106.715 0 0 1-19.377 4.494 166.9 166.9 0 0 1-23.945 1.656 166.9 166.9 0 0 1-23.945-1.656 106.712 106.712 0 0 1-19.377-4.494 44.381 44.381 0 0 1-11.677-5.676z" clip-rule="evenodd" transform="translate(-1.279 -2.577)"/>
        </clipPath>
        <style>
            .cls-4{fill:#ff5722}.cls-13,.cls-14,.cls-4{fill-rule:evenodd}.cls-11,.cls-13{fill:#43a047}.cls-12{fill:#fffffe}.cls-14{fill:#3a7e3d}
        </style>
    </defs>
    <g id="ico_main_restaurant" transform="translate(31.021 -9.164)">
        <ellipse id="타원_25" cx="43.5" cy="19" opacity="0.786" rx="43.5" ry="19" transform="translate(44.978 104.166)"/>
        <g id="_466044944" transform="translate(21.987 52.697)">
            <path id="안쪽" fill="#c5cae9" fill-rule="evenodd" d="M99.66 17.051c-9.812-2.771-23.343-4.486-38.268-4.486s-28.456 1.715-38.268 4.486c-9.832 2.777-16.1 6.773-16.692 11.394-3.438-2.33-5.36-4.838-5.36-7.384 0-4.619 6.326-9.114 16.554-12.645C28.766 4.569 44.235 2.19 61.392 2.19s32.627 2.379 43.766 6.225c10.228 3.531 16.554 8.026 16.554 12.645 0 2.546-1.922 5.054-5.36 7.384-.6-4.62-6.861-8.617-16.692-11.394z" transform="translate(4.57 3.673)"/>
            <path id="빨간" d="M1.279 19.036c.126-4.865 6.5-9.08 16.737-11.973 9.812-2.771 23.344-4.486 38.268-4.486S84.74 4.292 94.552 7.063c10.24 2.892 16.611 7.108 16.737 11.973A44.38 44.38 0 0 1 99.6 24.712a106.715 106.715 0 0 1-19.377 4.494 166.9 166.9 0 0 1-23.945 1.656 166.9 166.9 0 0 1-23.945-1.656 106.712 106.712 0 0 1-19.377-4.494 44.381 44.381 0 0 1-11.677-5.676z" class="cls-4" transform="translate(9.678 13.661)"/>
            <g id="마스크_그룹_8" clip-path="url(#clip-path)" opacity="0.68" transform="translate(10.957 16.31)">
                <g id="그룹_83" transform="translate(0 -50.786)">
                    <path id="합치기_5" fill="#fff" d="M6.525 88.759C.676 87.66-1.315 80.01.853 73.388s9.913-11.318 9.913-11.318h.072c2.134-4.968 4.27-11.623 6.4-18.278C27.077 12.636 26.118-2.817 35.952.423s0 15.453-9.834 46.609c-1.633 5.331-3.038 10.191-4.438 15.038h.108s2.781 6.16 1.93 17.5c-.6 8-6 9.833-11.182 9.833a33.017 33.017 0 0 1-6.011-.644z" transform="translate(65.125 0)"/>
                    <path id="_466048184-2" d="M1.279 19.036c.126-4.865 6.5-9.08 16.737-11.973 9.812-2.771 23.344-4.486 38.268-4.486S84.74 4.292 94.552 7.063c10.24 2.892 16.611 7.108 16.737 11.973A44.38 44.38 0 0 1 99.6 24.712a106.715 106.715 0 0 1-19.377 4.494 166.9 166.9 0 0 1-23.945 1.656 166.9 166.9 0 0 1-23.945-1.656 106.712 106.712 0 0 1-19.377-4.494 44.381 44.381 0 0 1-11.677-5.676z" class="cls-4" transform="translate(-1.279 48.208)"/>
                </g>
            </g>
            <path id="아래" fill="url(#linear-gradient)" d="M.853 2.895c.027 12.516 2.68 35.12 17.059 46.494 23.417 18.523 74.389 18.523 97.806 0 14.38-11.374 17.032-33.978 17.059-46.494-7.259 14.122-36.611 21.183-65.962 21.183S8.113 17.016.853 2.895z" transform="translate(-0.853 21.838)"/>
            <path id="위" fill="#3949ab" d="M66.815 1.971C49.1 1.971 33 4.473 21.286 8.517 8.662 12.876.853 19.283.853 26.7s7.809 13.832 20.433 18.191C33 48.936 49.1 51.437 66.815 51.437s33.816-2.5 45.529-6.546c12.624-4.359 20.433-10.766 20.433-18.187s-7.809-13.828-20.433-18.187c-11.713-4.044-27.815-6.546-45.529-6.546zM23.049 14.059c11.139-3.846 26.608-6.225 43.766-6.225s32.627 2.379 43.766 6.225c10.228 3.531 16.554 8.026 16.554 12.645s-6.326 9.114-16.554 12.645c-11.139 3.851-26.608 6.226-43.766 6.226S34.189 43.2 23.049 39.349C12.822 35.818 6.5 31.324 6.5 26.7s6.322-9.11 16.549-12.641z" transform="translate(-0.853 -1.971)"/>
        </g>
        <g id="그룹_81" transform="translate(108.836 18.221)">
            <path id="패스_155" fill="#eaeaea" d="M51.094 68.415c1.439-4.985 2.878-9.97 4.557-15.453C65.485 21.807 75.32 9.594 65.485 6.353s-8.874 12.213-18.709 43.369c-2.159 6.73-4.318 13.459-6.476 18.444h10.794z" transform="translate(-40.3 -5.93)"/>
            <path id="패스_162" fill="#262e87" d="M2.573 0C4.036.017 5.257 3.033 5.3 6.735s-1.109 6.69-2.572 6.672S.044 10.375 0 6.672 1.11-.017 2.573 0z" transform="translate(20.989 16.209) rotate(-161.319)"/>
        </g>
        <g id="그룹_82" transform="translate(32.624 44.818)">
            <path id="_466047536" d="M6.425 2.786a14.491 14.491 0 0 1 3.829.315c.535.156 3.049 1.22 5.06 2.183A19.54 19.54 0 0 1 17.8 6.639l.012-.006c.07-.034.177-.087.445-.212a.687.687 0 0 1 .922.363.737.737 0 0 1-.35.959c-.15.07-.309.148-.419.2a2.431 2.431 0 0 1-.232.105 1.119 1.119 0 0 1-.3.072l-.094.014a.687.687 0 0 1-.713-.281A15.046 15.046 0 0 0 14.728 6.6c-1.956-.936-4.361-1.959-4.852-2.1a13.179 13.179 0 0 0-3.412-.262c-1 .026-3.649.788-4.007.087l-.025-.049-.019-.034a.823.823 0 0 1-.137-.461.756.756 0 0 1 0-.094.917.917 0 0 1 .094-.327c.121-.286 2.038-.522 4.056-.574z" class="cls-11" transform="translate(65.387 26.715)"/>
            <path id="_466047416" d="M13.031 3.121A.681.681 0 0 1 14.012 3a.745.745 0 0 1 .112 1.02 20.189 20.189 0 0 0-1.283 2.022 12.95 12.95 0 0 1-1.475 2.215 11.235 11.235 0 0 1-2.594 1.824 6.389 6.389 0 0 1-2.15.745c-.043.043-.053.048-.058.055s-.025.047-.061.119c-.053.107-.135.27-.3.575a.684.684 0 0 1-.949.281.74.74 0 0 1-.271-.986c.131-.245.218-.42.275-.535a2.473 2.473 0 0 1 .148-.272 1.553 1.553 0 0 1 .238-.277c.017-.017.038-.038.18-.188a.684.684 0 0 1 .522-.215 4.359 4.359 0 0 0 1.8-.6 9.682 9.682 0 0 0 2.228-1.556A12.07 12.07 0 0 0 11.649 5.3a21.621 21.621 0 0 1 1.381-2.179z" class="cls-11" transform="translate(2.838 28.493)"/>
            <path id="_466047872" d="M2.153 4.175a.788.788 0 0 1 .253-.875c.277-.274.613-.326.751-.116a11.68 11.68 0 0 0 1.319 1.637 7.66 7.66 0 0 1 1.711 2.547 3.8 3.8 0 0 0 1.358 1.714 2.493 2.493 0 0 0 1.772.411c.173-.026.963-.115 1.571-.173a4.809 4.809 0 0 1 .9-.04c.244.071.287.4.1.741s-.543.554-.787.483l-.622.061c-.608.058-1.367.143-1.521.166a3.163 3.163 0 0 1-2.257-.5 4.381 4.381 0 0 1-1.569-1.976 7.177 7.177 0 0 0-1.6-2.367 12.185 12.185 0 0 1-1.379-1.713z" class="cls-12" transform="translate(77.295 33.795)"/>
            <path id="_466047344" d="M21.33 3.451a.682.682 0 0 1 .982.122.746.746 0 0 1-.117 1.02A26.026 26.026 0 0 1 17.5 7.536a13.567 13.567 0 0 1-4.252 1.4 15.985 15.985 0 0 0-2.054.356 16.826 16.826 0 0 1-4.375.455c-.032 0-.186-.006-.37-.014-.465-.019-1.162-.168-1.217-.112a.684.684 0 0 1-.729.226l-.179-.045L4.29 9.8a1.432 1.432 0 0 1-.3-.1c-.071-.032-.148-.075-.289-.153-.1-.053-.233-.13-.569-.31a.739.739 0 0 1-.3-.977.686.686 0 0 1 .94-.312c.219.118.437.239.585.321.1.056.155.086.191.1l.061.015.035.008h.015A6.29 6.29 0 0 1 6.5 8.287c.106 0 .194.008.315.008a15.67 15.67 0 0 0 4.08-.421 16.942 16.942 0 0 1 2.216-.374 12.269 12.269 0 0 0 3.8-1.272 24.5 24.5 0 0 0 4.419-2.777z" class="cls-12" transform="translate(49.769 40.063)"/>
            <path id="_466047728" d="M4.687 7.29a.737.737 0 0 1-.34-.962.687.687 0 0 1 .926-.353c.03.014.639-.335 1.512-.754a19.026 19.026 0 0 1 4.378-1.663c.3-.057 1.715-.277 2.856-.35a3.442 3.442 0 0 1 1.733.181.743.743 0 0 1 .237 1 .685.685 0 0 1-.96.247 5.133 5.133 0 0 0-.925.02c-1.047.067-2.4.279-2.69.334A17.954 17.954 0 0 0 7.37 6.537c-1.203.577-2.124 1.02-2.683.753z" class="cls-12" transform="translate(16.84 37.263)"/>
            <path id="_466047320" d="M5.713 5.221a15.213 15.213 0 0 1 3.535 3.487c.375.648.6 1 .755 1.227a2.431 2.431 0 0 1 .186.3 3.956 3.956 0 0 1 .1.531c.366 2.38 1.9 3.163 1.378-.227a4.008 4.008 0 0 0-.173-.82 2.737 2.737 0 0 0-.334-.6c-.147-.225-.371-.566-.711-1.153a16.587 16.587 0 0 0-3.916-3.915c-5.943-2.393-6.591-.917-.82 1.17z" class="cls-11" transform="translate(87.371 27.751)"/>
            <path id="_466047752" d="M17.877 3.9a.727.727 0 0 1 .547.856.7.7 0 0 1-.824.569c-1.249-.262-2.122-.5-2.784-.675-1.7-.458-1.834-.493-5.7.224l-.281.051c-1.358.247-2.88.523-3.326 1.859a.693.693 0 0 1-.889.448.734.734 0 0 1-.429-.932c.715-2.139 2.663-2.493 4.4-2.809l.281-.051c4.151-.771 4.3-.73 6.291-.2.612.165 1.419.382 2.714.653z" class="cls-12" transform="translate(17.855 28.6)"/>
            <g id="그룹_77" transform="translate(0)">
                <path id="_466046936" d="M8.351 8.352A9.9 9.9 0 0 0 4.9 3.386a.519.519 0 0 1-.064-.712.474.474 0 0 1 .685-.066 10.908 10.908 0 0 1 3.765 5.527q-.472.107-.936.217z" class="cls-11" transform="translate(12.248 19.336)"/>
                <path id="_466046384" d="M5.4 5.506a8.112 8.112 0 0 1 1.93-2.318.352.352 0 0 0 .043-.482.321.321 0 0 0-.473-.044 8.152 8.152 0 0 0-2.306 3.017l.8-.174z" class="cls-11" transform="translate(17.454 21.677)"/>
                <path id="_466046360" d="M4.723 1.677c3.977 49.935 46.512 13.213 0 0z" class="cls-13" transform="translate(-4.723 -1.677)"/>
                <path id="_466046816" d="M4.817 1.677c.015.192.037.371.053.561l18.636 23.31q.243-.192.469-.4L5.339 1.833c-.177-.052-.342-.106-.522-.157z" class="cls-14" transform="translate(-4.817 -1.677)"/>
                <path id="_466047008" d="M4.884 12.314c.136.232.275.457.415.676l10.775 1.035a.3.3 0 0 0 .213-.064.321.321 0 0 0 .1-.206l1-11.2c-.181-.182-.368-.365-.563-.547l-.996 11.357-10.944-1.051z" class="cls-14" transform="translate(0.033 6.474)"/>
                <path id="_466047080" d="M5.046 10.491c.079.222.157.444.238.659l9.143.878a.3.3 0 0 0 .213-.064.321.321 0 0 0 .1-.206l.845-9.5c-.188-.122-.384-.243-.58-.364l-.844 9.493-9.136-.878z" class="cls-14" transform="translate(-2.338 3.445)"/>
                <path id="_466045928" d="M5.211 7.9l.149.65 6.575.632a.3.3 0 0 0 .213-.064.321.321 0 0 0 .1-.206l.608-6.833c-.192-.091-.391-.181-.588-.271l-.6 6.732-6.457-.64z" class="cls-14" transform="translate(-3.864 1.265)"/>
                <path id="_466045592" d="M18.764 2.031c-.792 9.952-3.846 14.819-6.958 16.506q-1.866.288-3.641.616C2.568 18.029.264 7.286 18.764 2.031z" class="cls-13" transform="translate(17.629 7.446)"/>
                <path id="_466045808" d="M17.122 2.031c-.01.13-.025.252-.036.38L4.465 18.2q-.164-.13-.317-.274L16.769 2.137c.119-.037.231-.072.353-.106z" class="cls-14" transform="translate(19.271 7.446)"/>
                <path id="_466046192" d="M12.756 9.234c-.092.157-.186.309-.281.457l-7.3.7a.2.2 0 0 1-.144-.043.216.216 0 0 1-.067-.139l-.687-7.594c.123-.124.25-.247.381-.371l.685 7.7 7.412-.712z" class="cls-14" transform="translate(20.308 12.967)"/>
                <path id="_466044896" d="M11.371 8c-.053.15-.107.3-.161.446l-6.192.595A.2.2 0 0 1 4.873 9a.216.216 0 0 1-.067-.139l-.587-6.449c.127-.083.26-.165.392-.247l.572 6.429L11.371 8z" class="cls-14" transform="translate(23.189 10.915)"/>
                <path id="_466045160" d="M9.375 6.246c-.033.147-.066.3-.1.44l-4.453.428a.2.2 0 0 1-.144-.043.215.215 0 0 1-.078-.152l-.417-4.628c.13-.062.265-.122.4-.184l.406 4.559 4.388-.422z" class="cls-14" transform="translate(26.107 9.439)"/>
            </g>
            <path id="_466047848" d="M7.777 3.2a.685.685 0 0 1 .961-.243.744.744 0 0 1 .234 1C8.31 5.092 7.8 5.865 7.414 6.451c-.994 1.509-1.07 1.625-1.736 5.643l-.049.292c-.239 1.411-.506 2.992.551 3.883a.746.746 0 0 1 .1 1.021.681.681 0 0 1-.98.11c-1.693-1.427-1.35-3.45-1.045-5.256l.049-.292c.715-4.318.8-4.454 1.963-6.214.357-.542.828-1.257 1.515-2.429z" class="cls-11" transform="translate(31.112 28.708)"/>
        </g>
        <path id="area" fill="none" d="M0 0H240V200H0z" transform="translate(-31.021 9.164)"/>
    </g>
</svg>
