<svg xmlns="http://www.w3.org/2000/svg" width="240" height="200">
    <defs>
        <linearGradient id="linear-gradient" x1=".5" x2=".5" y2="1" gradientUnits="objectBoundingBox">
            <stop offset="0" stop-color="#02bf77"/>
            <stop offset="1" stop-color="#008e58"/>
        </linearGradient>
        <linearGradient id="linear-gradient-2" x1=".5" x2=".5" y2="1" gradientUnits="objectBoundingBox">
            <stop offset="0" stop-color="#00edd5"/>
            <stop offset="1" stop-color="#00b4a1"/>
        </linearGradient>
        <linearGradient id="linear-gradient-3" x1=".5" x2=".5" y2="1" gradientUnits="objectBoundingBox">
            <stop offset="0" stop-color="#4c82ff"/>
            <stop offset="1" stop-color="#004cff"/>
        </linearGradient>
        <linearGradient id="linear-gradient-4" x1=".5" x2=".5" y2="1" gradientUnits="objectBoundingBox">
            <stop offset="0" stop-color="#ffd188"/>
            <stop offset="1" stop-color="#eaa02a"/>
        </linearGradient>
        <linearGradient id="linear-gradient-5" x1=".5" x2=".5" y2="1" gradientUnits="objectBoundingBox">
            <stop offset="0" stop-color="#ffdb14"/>
            <stop offset="1" stop-color="#ffec89"/>
        </linearGradient>
        <linearGradient id="linear-gradient-6" x1=".5" x2=".5" y2="1" gradientUnits="objectBoundingBox">
            <stop offset="0" stop-color="#5acdff"/>
            <stop offset="1" stop-color="#b9eaff"/>
        </linearGradient>
        <clipPath id="clip-path">
            <ellipse id="타원_1822" data-name="타원 1822" cx="63.29" cy="63.291" rx="63.29" ry="63.291" style="stroke:#707070;fill:#fff"/>
        </clipPath>
        <filter id="다각형_13" x="35.438" y=".879" width="148.079" height="124.215" filterUnits="userSpaceOnUse">
            <feOffset dx="-1" dy="3"/>
            <feGaussianBlur stdDeviation="10.5" result="blur"/>
            <feFlood flood-color="#009027" flood-opacity=".161"/>
            <feComposite operator="in" in2="blur"/>
            <feComposite in="SourceGraphic"/>
        </filter>
        <style>
            .cls-14,.cls-15{fill:#fff}.cls-13{fill:none}.cls-14{opacity:.2}.cls-11{fill:#eda93b}.cls-13{stroke:#fff;stroke-linecap:round;stroke-linejoin:round;stroke-width:3px;fill-rule:evenodd}.cls-15{opacity:.4}
        </style>
    </defs>
    <g id="ico_main_yangyang" transform="translate(41.557 -44.041)">
        <path id="사각형_21360" data-name="사각형 21360" transform="translate(-41.557 44.041)" style="fill:none" d="M0 0h240v200H0z"/>
        <path id="path12703" d="M-504 1266.893c0 36.566 28.418 66.209 63.475 66.209s63.475-29.643 63.475-66.209" transform="translate(518.969 -1145.124)" style="opacity:.2;fill:#01072c"/>
        <g id="그룹_47476" data-name="그룹 47476" transform="translate(14.969 47.481)" style="clip-path:url(#clip-path)">
            <path id="다각형_12" data-name="다각형 12" d="M43.435 7.185a5 5 0 0 1 8.585 0l38.915 65.142a5 5 0 0 1-4.292 7.564H8.811a5 5 0 0 1-4.292-7.564z" transform="translate(45.652 7.263)" style="fill:url(#linear-gradient)"/>
            <g transform="translate(-56.53 -3.44)" style="filter:url(#다각형_13)">
                <path id="다각형_13-2" data-name="다각형 13" d="M39.255 4.727a4 4 0 0 1 6.57 0l34.888 50.206a4 4 0 0 1-3.285 6.283H7.651a4 4 0 0 1-3.285-6.283z" transform="translate(67.94 29.38)" style="fill:url(#linear-gradient-2)"/>
            </g>
            <path id="패스_40599" data-name="패스 40599" d="M2580.925 1766.661c10 0 10 2.8 19.991 2.8s10-2.8 19.992-2.8 10 2.8 19.992 2.8 10-2.8 19.993-2.8 10 2.8 19.993 2.8-15.749 31.584-15.749 31.584l-10.678 20.536-54.746-6.652-9.508-9.712-5.465-19.43z" transform="translate(-2605.21 -1691.242)" style="opacity:.998;fill:url(#linear-gradient-3)"/>
            <path id="패스_40600" data-name="패스 40600" d="M-23948.871-23413.568h-81.391a30.894 30.894 0 0 0-9.035 22.842c.652 14.068-16.932 25.031-16.932 25.031l14.744 22.4h64.105s17.3-29.273 18-31.209 13.074-32.508 13.074-32.508z" transform="translate(24096.826 23490.871)" style="fill:url(#linear-gradient-4)"/>
            <path id="패스_40601" data-name="패스 40601" d="M1291.089 1003.5s-12.41 7.748-12.41 35.957c0 33.959 5.935 34.141 6.943 34.141h10.934c1.008 0 6.943-.182 6.943-34.141.001-28.207-12.41-35.957-12.41-35.957z" transform="translate(-1202.751 -969.645)" style="fill:url(#linear-gradient-5)"/>
            <path id="교차_2" data-name="교차 2" d="M0 70.05V0c1.016.688 12.338 8.966 12.338 35.909 0 33.96-5.935 34.141-6.943 34.141z" transform="translate(88.411 33.906)" style="fill:url(#linear-gradient-6)"/>
            <path id="패스_40603" data-name="패스 40603" class="cls-11" d="M1335.894 605.906c-2.835-6.536-8.035-10.917-13.983-10.917s-11.148 4.38-13.982 10.917z" transform="translate(-1228.133 -500.028)"/>
            <path id="패스_40604" data-name="패스 40604" class="cls-11" d="M1331.1 603.219c-2.348-4.927-6.657-8.23-11.584-8.23s-9.235 3.3-11.584 8.23z" transform="translate(-1242.641 -497.342)"/>
            <g id="그룹_47475" data-name="그룹 47475" transform="translate(-48.808 86.257)" style="opacity:.539">
                <path id="path12736" class="cls-13" d="M989.991 1361.362H941.3" transform="translate(-885.434 -1361.362)"/>
                <path id="path12740" class="cls-13" d="M737.518 1031.872h-25.026" transform="translate(-712.492 -1031.864)"/>
                <path id="path12742" class="cls-13" d="M-480.545 1269.862h-11.193" transform="translate(526.59 -1269.862)"/>
                <path id="path12748" class="cls-13" d="M748.052 1031.872H712.4" transform="translate(-686.089 -1020.672)"/>
                <path id="path12750" class="cls-13" d="M-486.238 1271.862h6.423" transform="translate(495.079 -1260.669)"/>
                <path id="path12752" class="cls-13" d="M-496.615 1271.862h.05" transform="translate(569.9 -1260.669)"/>
                <path id="path12755" class="cls-13" d="M-500.61 1271.862h11.3" transform="translate(585.013 -1260.669)"/>
                <path id="path12796" class="cls-13" d="M588.428 811.685h-28.042" transform="translate(-526.865 -789.313)"/>
                <path id="path12798" class="cls-13" d="M-489.574 1275.862h6.423" transform="translate(517.082 -1242.281)"/>
                <path id="path12800" class="cls-13" d="M-497.493 1275.862h.149" transform="translate(575.596 -1242.281)"/>
                <path id="path12802" class="cls-13" d="M-498.493 1273.862h11.3" transform="translate(571.045 -1251.475)"/>
                <path id="path12819" class="cls-13" d="M-487.485 1273.862h11.022" transform="translate(498.703 -1251.475)"/>
                <path id="path12821" class="cls-13" d="M-495.493 1275.862h11.3" transform="translate(551.254 -1242.281)"/>
                <path id="path12823" class="cls-13" d="M-491.534 1275.862h.149" transform="translate(536.286 -1242.281)"/>
            </g>
            <circle id="타원_1815" data-name="타원 1815" class="cls-14" transform="translate(97.529 97.53)" r="0"/>
            <circle id="타원_1816" data-name="타원 1816" class="cls-14" cx="1.038" cy="1.038" transform="translate(78.854 99.605)" r="1.038"/>
            <circle id="타원_1817" data-name="타원 1817" class="cls-14" cx="1.038" cy="1.038" transform="translate(73.666 98.567)" r="1.038"/>
            <ellipse id="타원_1818" data-name="타원 1818" class="cls-14" cy=".519" ry=".519" transform="translate(75.741 101.68)"/>
            <circle id="타원_1819" data-name="타원 1819" class="cls-14" cx="2.075" cy="2.075" transform="translate(85.079 100.642)" r="2.075"/>
            <circle id="타원_1820" data-name="타원 1820" class="cls-14" cx="1.038" cy="1.038" transform="translate(99.605 99.605)" r="1.038"/>
            <circle id="타원_1821" data-name="타원 1821" class="cls-15" cx="1.038" cy="1.038" transform="translate(93.379 97.53)" r="1.038"/>
            <circle id="타원_1823" data-name="타원 1823" class="cls-14" cx="1.038" cy="1.038" transform="translate(109.379 85.529)" r="1.038"/>
            <circle id="타원_1825" data-name="타원 1825" cx="1.038" cy="1.038" transform="translate(115.379 82.08)" style="opacity:.3;fill:#fff" r="1.038"/>
            <circle id="타원_1826" data-name="타원 1826" class="cls-14" cx="1.038" cy="1.038" transform="translate(63.216 85.08)" r="1.038"/>
            <circle id="타원_1829" data-name="타원 1829" class="cls-15" cx="1.038" cy="1.038" transform="translate(103.687 79.529)" r="1.038"/>
            <circle id="타원_1827" data-name="타원 1827" class="cls-15" cx="1.038" cy="1.038" transform="translate(69.379 80.529)" r="1.038"/>
            <circle id="타원_1828" data-name="타원 1828" cx="1.038" cy="1.038" transform="translate(71.592 86.117)" style="opacity:.1;fill:#fff" r="1.038"/>
        </g>
    </g>
</svg>
