<svg xmlns="http://www.w3.org/2000/svg" width="240" height="200" viewBox="0 0 240 200">
    <defs>
        <linearGradient id="linear-gradient" x1=".5" x2=".5" y1="1" gradientUnits="objectBoundingBox">
            <stop offset="0" stop-color="#6bc7d9"/>
            <stop offset="1" stop-color="#4690e5"/>
        </linearGradient>
        <clipPath id="clip-path">
            <path id="합치기_12" d="M77.97 20.08A20.08 20.08 0 1 0 98.05 0a20.106 20.106 0 0 0-20.08 20.08zM0 20.08A20.08 20.08 0 1 0 20.08 0 20.106 20.106 0 0 0 0 20.08z" class="cls-1"/>
        </clipPath>
        <style>
            .cls-1{fill:url(#linear-gradient)}.cls-4{fill:#00c9b5}.cls-5{fill:#132f68}
        </style>
    </defs>
    <g id="ico_main_tour" transform="translate(48.131 23.705)">
        <path id="합치기_9" fill="#01072c" d="M70.061 55.794v-.011.015a9.376 9.376 0 0 1-17.466 0A26.443 26.443 0 0 1 0 51.986 26.037 26.037 0 0 1 2.9 40s8.022-17.874 12.64-22.6a15.41 15.41 0 0 1 3.407-2.622c2.226-3.835 5.259-8.913 6.122-9.966 7.757-9.45 25.541-3.64 25.481 5.764-.011 1.562-.117 5.922-.211 9.813a9.4 9.4 0 0 1 2.327 3.833C55.7 20.657 61.326 21 61.326 21s5.626-.343 8.655 3.22a9.4 9.4 0 0 1 2.335-3.839c-.095-3.888-.2-8.239-.212-9.8-.062-9.4 17.723-15.214 25.481-5.764.863 1.053 3.9 6.133 6.124 9.969a15.383 15.383 0 0 1 3.4 2.617C111.72 22.126 119.742 40 119.742 40a26.031 26.031 0 0 1 2.9 11.987 26.44 26.44 0 0 1-52.586 3.807z" opacity="0.267" transform="translate(8.035 28.209)"/>
        <path id="패스_84" fill="#2cbeff" d="M36.912 15.373c-3.383-4.008-9.678-3.623-9.678-3.623s-6.291-.385-9.674 3.623L13.23 33.59l4.244 17.22a10.459 10.459 0 0 0 19.515 0l4.24-16.188z" transform="translate(41.785 20.008)"/>
        <path id="패스_85" d="M42.174 36.752c.017-2.047.385-15.468.407-18.637.069-10.556-19.8-17.078-28.469-6.471-1.362 1.67-7.554 12.342-9.224 15.382 11.566-4.774 29.912 2.609 37.286 9.726z" class="cls-4" transform="translate(14.4 0)"/>
        <path id="패스_86" d="M19.715 36.752c-.009-2.047-.381-15.468-.4-18.637-.069-10.556 19.8-17.078 28.469-6.471 1.362 1.67 7.554 12.342 9.224 15.382-11.569-4.774-29.908 2.609-37.293 9.726z" class="cls-4" transform="translate(61.749 0)"/>
        <path id="패스_87" d="M18.848 61.023C20.925 76.093 33.237 87.7 48.071 87.7c16.286 0 29.532-14 29.532-31.195A32.394 32.394 0 0 0 74.357 42.3s-8.963-21.19-14.119-26.789c-12-13.04-38.76-2.479-41.479 8.087z" class="cls-5" transform="translate(59.93 10.585)"/>
        <path id="패스_88" d="M59.345 23.6c-2.72-10.569-29.481-21.13-41.48-8.09C12.7 21.109 3.742 42.3 3.742 42.3A32.416 32.416 0 0 0 .5 56.506C.5 73.707 13.754 87.7 30.036 87.7c14.834 0 27.146-11.61 29.223-26.681z" class="cls-5" transform="translate(0 10.588)"/>
        <circle id="타원_10" cx="5.619" cy="5.619" r="5.619" fill="#e6e7e8" transform="translate(63.4 62.08)"/>
        <g id="그룹_85" transform="translate(9.869 47.361)">
            <path id="합치기_13" d="M77.969 20.081a20.081 20.081 0 1 1 20.081 20.08 20.107 20.107 0 0 1-20.081-20.08zM0 20.081a20.08 20.08 0 1 1 20.081 20.08A20.1 20.1 0 0 1 0 20.081z" class="cls-1" transform="translate(0.005 0)"/>
            <path id="합치기_14" fill="#fff" d="M77.969 20.081a20.081 20.081 0 1 1 20.081 20.08 20.107 20.107 0 0 1-20.081-20.08zM0 20.081a20.08 20.08 0 1 1 20.081 20.08A20.1 20.1 0 0 1 0 20.081z" opacity="0.253" transform="translate(0.005 0)"/>
            <g id="마스크_그룹_9" clip-path="url(#clip-path)" opacity="0.5" transform="translate(0 0.001)">
                <g id="그룹_84" transform="translate(0 -26.717)">
                    <path id="합치기_10" d="M77.97 20.08A20.08 20.08 0 1 0 98.05 0a20.106 20.106 0 0 0-20.08 20.08zM0 20.08A20.08 20.08 0 1 0 20.08 0 20.106 20.106 0 0 0 0 20.08z" class="cls-5"/>
                    <path id="합치기_11" d="M77.97 20.08A20.08 20.08 0 1 0 98.05 0a20.106 20.106 0 0 0-20.08 20.08zM0 20.08A20.08 20.08 0 1 0 20.08 0 20.106 20.106 0 0 0 0 20.08z" class="cls-1" transform="translate(0 26.717)"/>
                </g>
            </g>
        </g>
        <path id="area" fill="none" d="M0 0H240V200H0z" transform="translate(-48.131 -23.705)"/>
    </g>
</svg>
