<svg xmlns="http://www.w3.org/2000/svg" width="240" height="203.903" viewBox="0 0 240 203.903">
    <g transform="translate(62.264 24.315)">
        <path fill="#00133e" d="M8 23v10.035c0 2.76 1.9 5.018 4.22 5.018h1.055L19.6 87.226c.633 5.018 4.22 8.53 8.439 8.53h61.4c4.22 0 7.806-3.512 8.439-8.53l6.33-49.173h.844c2.321 0 4.22-2.258 4.22-5.018V23H8z" opacity="0.41" transform="translate(4.437 14.063)"/>
        <path d="M8 23v12.723c0 3.5 1.771 6.362 3.935 6.362h.984l5.9 62.343c.59 6.362 3.935 10.815 7.87 10.815h57.257c3.935 0 7.28-4.453 7.87-10.815l5.9-62.343h.787c2.164 0 3.935-2.863 3.935-6.362V23H8z" opacity="0.1" transform="translate(13.418 -3.461)"/>
        <circle cx="16.551" cy="16.551" r="16.551" fill="#ed3a04" transform="translate(73.298 20.358)"/>
        <path fill="#ed9c04" d="M67.651 48.119L43.06 59.941a4.584 4.584 0 0 1-6.384-1.655L22.489 36.06a4.584 4.584 0 0 1 1.655-6.384l24.59-14.187a4.584 4.584 0 0 1 6.384 1.655l14.187 24.59a4.4 4.4 0 0 1-1.654 6.385z" transform="translate(10.85 0.377)"/>
        <path fill="#0478ed" d="M10.7 35.609l7.093-15.133a4.472 4.472 0 0 1 6.384-1.892l25.063 13a4.472 4.472 0 0 1 1.892 6.384z" transform="translate(-4.316 4.611)"/>
        <path fill="#00a83a" d="M58.3 11.809a9.7 9.7 0 0 0-9.221 2.364 9.423 9.423 0 0 0-2.37 9.227 9.7 9.7 0 0 0 9.221-2.364 9.16 9.16 0 0 0 2.37-9.227z" transform="translate(44.323 -4.219)"/>
        <path fill="#d9dce1" d="M8 23v9.458a4.743 4.743 0 0 0 4.729 4.729h1.182L21 83.53a9.439 9.439 0 0 0 9.458 8.039h68.81a9.439 9.439 0 0 0 9.458-8.039l7.093-46.344h.946a4.743 4.743 0 0 0 4.729-4.729V23H8z" transform="translate(-8 11.545)"/>
        <path fill="#004eff" d="M8 23v9.458a4.743 4.743 0 0 0 4.729 4.729h1.182L21 83.53a9.439 9.439 0 0 0 9.458 8.039h68.81a9.439 9.439 0 0 0 9.458-8.039l7.093-46.344h.946a4.743 4.743 0 0 0 4.729-4.729V23H8z" opacity="0.7" transform="translate(-8.264 11.545)"/>
        <g>
            <path fill="#56aaff" d="M26.031 9.1L16.1 19.031l34.994 34.994a6.856 6.856 0 0 0 9.931 0 6.856 6.856 0 0 0 0-9.931z" opacity="0.9" transform="translate(18.313 0) translate(-16.1 -9.1)"/>
        </g>
        <path fill="none" d="M0 0H240V200H0z" transform="translate(-62.264 -20.412)"/>
    </g>
</svg>
